<svg width="45" height="45" viewBox="0 0 45 45" fill="none" xmlns="http://www.w3.org/2000/svg">
<rect width="45" height="45" rx="22.5" fill="white"/>
<path d="M22.5058 21H22.5138M26.5008 21H26.5098M18.5098 21H18.5188" stroke="#F92B60" stroke-width="2" stroke-linecap="round" stroke-linejoin="round"/>
<path d="M12.5 21C12.5 20.23 12.513 19.477 12.54 18.75C12.623 16.377 12.665 15.19 13.63 14.217C14.595 13.245 15.816 13.193 18.256 13.088C19.6699 13.0287 21.0849 12.9993 22.5 13C23.98 13 25.405 13.03 26.744 13.088C29.184 13.193 30.404 13.245 31.37 14.218C32.335 15.19 32.377 16.377 32.46 18.75C32.5127 20.2495 32.5127 21.7505 32.46 23.25C32.377 25.623 32.335 26.81 31.37 27.783C30.405 28.755 29.184 28.807 26.744 28.912C26.0093 28.9433 25.251 28.9667 24.469 28.982C23.729 28.996 23.358 29.002 23.032 29.127C22.706 29.252 22.432 29.485 21.884 29.955L19.705 31.825C19.5989 31.9159 19.4691 31.9744 19.3307 31.9937C19.1924 32.013 19.0515 31.9922 18.9246 31.9337C18.7978 31.8753 18.6903 31.7817 18.6151 31.6641C18.5398 31.5464 18.4999 31.4097 18.5 31.27V28.922L18.256 28.912C15.816 28.807 14.596 28.755 13.63 27.782C12.665 26.81 12.623 25.623 12.54 23.25C12.5135 22.5003 12.5001 21.7502 12.5 21Z" stroke="#F92B60" stroke-width="1.5" stroke-linecap="round" stroke-linejoin="round"/>
</svg>
