<svg width="63" height="66" viewBox="0 0 63 66" fill="none" xmlns="http://www.w3.org/2000/svg">
<circle cx="29.5" cy="35.5" r="29" fill="white" stroke="#F92B60"/>
<mask id="mask0_273_15882" style="mask-type:alpha" maskUnits="userSpaceOnUse" x="0" y="7" width="58" height="58">
<circle cx="29" cy="36" r="29" fill="white"/>
</mask>
<g mask="url(#mask0_273_15882)">
<path d="M30.5961 46.543L30.5575 45.9995C30.5918 45.9995 33.9538 45.8769 33.8872 44.4747C33.8829 44.3457 33.8443 44.2188 33.7777 44.1046C33.709 43.9904 33.6124 43.891 33.4965 43.817C33.402 43.9714 33.2754 44.1067 33.1208 44.2146C32.9684 44.3203 32.7923 44.3965 32.6034 44.4388C31.4076 44.6502 29.9349 44.3415 29.5742 43.8043C29.5098 43.7134 29.4776 43.6055 29.4819 43.4977C29.4862 43.3898 29.5313 43.2883 29.6043 43.2079C30.0036 42.7448 31.9443 42.6538 33.1251 43.043L33.2067 43.0705C33.3205 42.713 33.3484 42.3345 33.284 41.9602C33.2668 41.8544 33.241 41.7487 33.2045 41.6472C33.0779 41.645 32.9426 41.6577 32.8009 41.6556C31.5858 41.6472 29.1663 41.2517 29.1277 40.5432C29.1041 40.1181 29.6515 39.9511 31.0749 39.9214C32.3587 39.8517 33.1466 40.3846 33.5566 41.0614C33.6768 41.0444 33.7928 41.0191 33.9087 40.9852C34.4518 40.8203 34.4454 40.5707 34.4433 40.4734C34.4433 40.3212 34.4068 40.171 34.3381 40.0293C34.2694 39.8897 34.1685 39.7628 34.0439 39.6592C32.9534 38.7223 30.1582 38.8704 30.1303 38.8725L30.0701 38.329C30.1968 38.3311 33.1552 38.1746 34.4454 39.2616C34.6322 39.416 34.7825 39.6042 34.8855 39.8136C34.9886 40.023 35.0422 40.2492 35.0444 40.4777C35.0508 40.8308 34.8748 41.3743 33.8014 41.5731C33.8336 41.6768 33.8593 41.7804 33.8765 41.8861C33.9559 42.3683 33.9151 42.8569 33.7541 43.3137C33.9688 43.4342 34.1491 43.6034 34.278 43.8043C34.4068 44.0052 34.4776 44.2294 34.4883 44.4599C34.5678 46.4246 30.7593 46.5409 30.5983 46.543H30.5961ZM30.0766 43.559C30.244 43.7747 31.3647 44.111 32.4682 43.9143C32.6764 43.8635 32.8503 43.7387 32.9576 43.5696C31.8477 43.1868 30.3149 43.3792 30.0787 43.5548V43.5611L30.0766 43.559ZM29.8512 40.5919C30.3492 40.8372 31.7554 41.1459 32.9104 41.1248C32.6077 40.7462 32.0689 40.4248 31.1178 40.4755C30.6906 40.4713 30.2677 40.5073 29.8533 40.5855V40.5919H29.8512Z" fill="#E41517"/>
<path d="M48.5919 39.0772L16.3915 38.7917C14.1523 38.7727 12.4971 37.1189 12.4391 35.0485L11.7865 22.0866C11.7285 20.0161 13.5748 18.2439 15.8161 18.2545L47.7354 15.7441C48.8088 15.7547 49.8521 16.1565 50.6314 16.8671C51.4107 17.5756 51.8659 18.5315 51.8959 19.5255L52.6795 35.4778C52.7375 37.5567 50.8311 39.0963 48.5919 39.0772Z" fill="#E41517"/>
<path d="M40.6044 32.8155C44.1187 32.7796 46.8366 30.1128 46.6713 26.858C46.5082 23.6033 43.5241 20.9957 40.0097 21.0316C36.4932 21.0676 33.7774 23.7344 33.9427 26.9891C34.1059 30.2439 37.09 32.8515 40.6044 32.8155Z" fill="white"/>
<path d="M10.5721 25.8965C9.61463 25.9071 8.71296 26.2687 8.06676 26.901C7.4957 27.4615 7.16508 28.1974 7.12859 28.9736L5.37462 28.9905C5.23293 28.557 4.79282 28.2376 4.28617 28.244C3.68505 28.2503 3.22133 28.705 3.24924 29.2612C3.27715 29.8174 3.78595 30.2636 4.38707 30.2573C4.76277 30.2531 5.08479 30.0733 5.26727 29.8026L7.19729 29.7836C7.34756 30.4815 7.7297 31.1307 8.30291 31.6319C9.01137 32.2516 9.94954 32.5942 10.907 32.5857L10.57 25.8986L10.5721 25.8965Z" fill="#E41517"/>
<path d="M15.4782 48.6194L12.7166 51.4472C12.1352 51.1267 11.4905 50.9231 10.8152 50.8597C9.83662 50.7668 8.83295 50.9627 7.92406 51.4233C7.27505 51.7538 6.69084 52.2135 6.2097 52.775C5.72857 53.3365 5.36004 53.9856 5.12811 54.6836L7.8954 55.4779C7.99419 55.1787 8.15385 54.9024 8.36072 54.6609C8.56745 54.4215 8.81657 54.225 9.09641 54.0856C9.65865 53.8006 10.2941 53.747 10.8643 53.9395C11.4347 54.13 11.8935 54.5509 12.1415 55.1071C12.2928 55.4283 12.3642 55.789 12.3492 56.1549C12.3364 56.5209 12.2378 56.8837 12.0639 57.2143C11.89 57.5448 11.6437 57.8326 11.3455 58.0557C11.0474 58.2788 10.7068 58.4271 10.3521 58.494L10.7805 61.4258C11.7824 61.2233 12.7216 60.7265 13.4822 59.998C14.2428 59.2694 14.7905 58.341 15.0598 57.3294C15.3257 56.3367 15.319 55.3058 15.0342 54.3529C14.976 54.1541 14.9023 53.9629 14.8198 53.7754L17.6668 50.8576C18.0787 50.4359 18.0977 49.7734 17.7104 49.3781L16.9217 48.5718C16.5343 48.1765 15.888 48.1976 15.4761 48.6193L15.4782 48.6194Z" fill="#E41517"/>
<path d="M14.8194 21.966C15.2423 21.9617 15.5686 21.6403 15.5493 21.249C15.53 20.8578 15.1714 20.5427 14.7464 20.5469C14.3234 20.5511 13.9971 20.8726 14.0164 21.2638C14.0358 21.6551 14.3943 21.9702 14.8172 21.966H14.8194Z" fill="#8E1017"/>
<path d="M15.2608 37.2179C15.6837 37.2137 16.01 36.8922 15.9907 36.501C15.9714 36.1098 15.6128 35.7946 15.1878 35.7989C14.7648 35.8031 14.4385 36.1246 14.4578 36.5158C14.4772 36.907 14.8357 37.2222 15.2608 37.2179Z" fill="#8E1017"/>
<path d="M48.7471 19.339C49.17 19.3348 49.4963 19.0133 49.477 18.6221C49.4577 18.2308 49.0992 17.9157 48.6741 17.92C48.2512 17.9242 47.9249 18.2457 47.9442 18.6369C47.9635 19.0281 48.322 19.3433 48.7449 19.339H48.7471Z" fill="#8E1017"/>
<path d="M49.6531 37.3C50.0761 37.2957 50.4024 36.9743 50.3831 36.583C50.3637 36.1918 50.0052 35.8767 49.5823 35.8809C49.1594 35.8851 48.8331 36.2066 48.8524 36.5978C48.8717 36.9891 49.2302 37.3042 49.6553 37.3H49.6531Z" fill="#8E1017"/>
<path d="M44.4028 44.2354L20.3024 45.0327C19.3685 45.0645 18.6665 45.792 18.7373 46.6612L20.165 64.3582C20.2358 65.2274 21.0495 65.9063 21.9855 65.8745L46.086 65.0772C47.0198 65.0455 47.7219 64.318 47.651 63.4488L46.2212 45.7518C46.1504 44.8847 45.3367 44.2037 44.4028 44.2354Z" fill="#E41517"/>
<path d="M40.5792 47.9283L24.7054 48.4528C24.0893 48.474 23.6298 48.9519 23.6749 49.525L24.6152 61.1821C24.6625 61.7531 25.197 62.1993 25.8132 62.1803L41.6869 61.6558C42.3031 61.6346 42.7625 61.1546 42.7174 60.5836L41.7771 48.9265C41.7299 48.3555 41.1953 47.9093 40.5792 47.9283Z" fill="#8E1017"/>
<path d="M35.5288 32.833C36.1235 33.4273 34.7151 35.4216 32.6112 35.3835C30.5073 35.3433 29.1956 33.2729 29.7473 32.6955C30.7649 31.8137 30.5331 34.4234 32.637 34.4614C34.743 34.5016 34.3781 32.1245 35.5288 32.833Z" fill="#1E1E1E"/>
<path d="M34.4675 47.5678L35.3348 45.178C35.3348 45.178 34.2528 44.2581 32.9776 44.2348C31.7023 44.2116 30.6504 45.0956 30.6504 45.0956L31.6165 47.5213C32.0179 47.2337 32.516 47.0835 33.0312 47.092C33.5465 47.1004 34.0531 47.2675 34.4675 47.5678Z" fill="#131313"/>
<path d="M35.7498 54.4859L35.4771 53.0098L30.4234 55.7527L30.168 57.5165L35.7498 54.4859Z" fill="#232323"/>
<path d="M35.4422 52.8217L35.1674 51.3477L30.7127 53.7607L30.4551 55.5266L35.4422 52.8217Z" fill="#232323"/>
<path d="M34.8267 49.4993L34.554 48.0273L31.2887 49.7975L31.0332 51.5528L34.8267 49.4993Z" fill="#232323"/>
<path d="M36.3998 57.9941L29.5578 61.7142L29.4526 62.4374C29.4333 62.5728 29.4526 62.7124 29.5063 62.8414C29.5471 62.9408 29.6093 63.0317 29.6866 63.11L36.6467 59.318L36.402 57.9963L36.3998 57.9941Z" fill="#232323"/>
<path d="M34.4676 47.5644C34.0554 47.2641 33.5509 47.097 33.0356 47.0865C32.5204 47.0759 32.0223 47.226 31.6209 47.5115L31.5801 47.7907L32.6964 47.1816C32.7866 47.1689 32.8789 47.1605 32.9691 47.1584L33.1258 47.1541L31.5479 48.0149L31.3203 49.5756L34.517 47.8415L34.4654 47.5644H34.4676Z" fill="#232323"/>
<path d="M35.1323 51.1598L34.8596 49.6836L30.9996 51.7731L30.7441 53.539L35.1323 51.1598Z" fill="#232323"/>
<path d="M37.2326 62.4824L32.2734 65.1831L32.9046 65.6864C33.0484 65.8006 33.2309 65.8662 33.4177 65.8704C33.6045 65.8746 33.7827 65.8154 33.9222 65.7055L36.9686 63.3114C37.0802 63.2247 37.1639 63.1105 37.2133 62.9836C37.2627 62.8567 37.2756 62.7172 37.2498 62.5818L37.2305 62.4824H37.2326Z" fill="#232323"/>
<path d="M37.1991 62.2969L36.9565 60.9941L31.0527 64.2087L32.1219 65.061L37.1991 62.2969Z" fill="#232323"/>
<path d="M36.3653 57.8119L36.0926 56.3379L29.8453 59.7322L29.5898 61.4939L36.3653 57.8119Z" fill="#232323"/>
<path d="M36.0595 56.1479L35.7868 54.6738L30.1363 57.7404L29.8809 59.5041L36.0595 56.1479Z" fill="#232323"/>
<path d="M36.9209 60.8068L36.6783 59.502L29.832 63.2347L30.9012 64.0869L36.9209 60.8068Z" fill="#232323"/>
<g opacity="0.8">
<path opacity="0.8" d="M32.1358 65.1592L37.2496 62.412L37.2625 62.209L32.0156 65.0281L32.1358 65.1592Z" fill="#EAAA56"/>
<path opacity="0.8" d="M31.0059 64.0563L31.1196 64.1853L36.9913 60.9665L37.0063 60.7656L31.0059 64.0584V64.0563Z" fill="#EAAA56"/>
<path opacity="0.8" d="M29.7637 62.9746L29.8667 63.11L36.6057 59.574L36.6293 59.373L29.7637 62.9767V62.9746Z" fill="#EAAA56"/>
<path opacity="0.8" d="M29.8646 61.2791C29.8281 61.3468 29.8023 61.4187 29.7852 61.4927L36.2643 58.0518L36.3094 57.8594L29.8667 61.277L29.8646 61.2791Z" fill="#EAAA56"/>
<path opacity="0.8" d="M36.0959 56.0391L29.9538 59.4038L29.8379 59.6512L36.0616 56.24L36.0959 56.0412V56.0391Z" fill="#EAAA56"/>
<path opacity="0.8" d="M35.7607 54.6697L35.7972 54.4688L30.2819 57.5014L30.166 57.7468L35.7628 54.6718L35.7607 54.6697Z" fill="#EAAA56"/>
<path opacity="0.8" d="M35.3715 53.15L35.4123 52.9512L30.5519 55.5736L30.4316 55.8147L35.3737 53.1479L35.3715 53.15Z" fill="#EAAA56"/>
<path opacity="0.8" d="M35.0827 51.404L35.1149 51.2031L30.8169 53.6331L30.7031 53.8784L35.0827 51.4019V51.404Z" fill="#EAAA56"/>
<path opacity="0.8" d="M34.8046 49.7711L34.8475 49.5723L31.097 51.537L30.9746 51.778L34.8046 49.7711Z" fill="#EAAA56"/>
<path opacity="0.8" d="M31.4374 49.439L31.3086 49.6801L34.4924 48.0411L34.5095 47.9734L34.4559 47.8867L31.4374 49.439Z" fill="#EAAA56"/>
<path opacity="0.8" d="M31.6206 47.8025L31.5176 48.0648L33.3488 47.0645L33.1921 47.0687C33.0998 47.0729 33.0096 47.0814 32.9195 47.0919L31.6228 47.8004L31.6206 47.8025Z" fill="#EAAA56"/>
<path opacity="0.8" d="M32.387 47.3173H32.4171C32.4922 47.3067 32.5695 47.2982 32.6468 47.294L30.9766 45.7734L31.0624 46.1118L32.387 47.3173Z" fill="#EAAA56"/>
<path opacity="0.8" d="M34.5014 47.2659L34.6194 47.0946L31.5945 44.7852C31.5087 44.8084 31.4271 44.8317 31.3477 44.8571L34.5014 47.2659Z" fill="#EAAA56"/>
<path opacity="0.8" d="M34.9857 45.9355L35.1017 45.7642L33.601 44.6137C33.455 44.5799 33.3048 44.5524 33.1523 44.5312L34.9836 45.9355H34.9857Z" fill="#EAAA56"/>
</g>
<path d="M24.8387 33.0909C28.3531 33.055 31.071 30.3882 30.9057 27.1334C30.7426 23.8787 27.7584 21.2711 24.2441 21.307C20.7275 21.343 18.0118 24.0098 18.1771 27.2645C18.3402 30.5193 21.3244 33.1269 24.8387 33.0909Z" fill="white"/>
<path d="M27.6466 29.8488C29.2266 29.8319 30.4482 28.6328 30.3752 27.1693C30.3022 25.7058 28.9604 24.5321 27.3804 24.549C25.8003 24.5659 24.5766 25.765 24.6517 27.2285C24.7247 28.692 26.0665 29.8657 27.6487 29.8488H27.6466Z" fill="#1E1E1E"/>
<path d="M37.3946 29.4953C38.9747 29.4784 40.1962 28.2793 40.1232 26.8158C40.0503 25.3523 38.7085 24.1786 37.1284 24.1955C35.5483 24.2124 34.3246 25.4115 34.3998 26.875C34.4728 28.3385 35.8145 29.5122 37.3968 29.4953H37.3946Z" fill="#1E1E1E"/>
<path d="M28.6243 27.1963C29.1578 27.1963 29.5904 26.7702 29.5904 26.2446C29.5904 25.7191 29.1578 25.293 28.6243 25.293C28.0907 25.293 27.6582 25.7191 27.6582 26.2446C27.6582 26.7702 28.0907 27.1963 28.6243 27.1963Z" fill="white"/>
<path d="M35.7941 26.7573C36.279 26.7573 36.6721 26.37 36.6721 25.8923C36.6721 25.4146 36.279 25.0273 35.7941 25.0273C35.3091 25.0273 34.916 25.4146 34.916 25.8923C34.916 26.37 35.3091 26.7573 35.7941 26.7573Z" fill="white"/>
</g>
<path d="M22.7332 12.0286L22.7654 13.1748C22.7976 14.3084 23.8152 15.2347 25.0411 15.2452L39.163 15.37C40.3867 15.3806 41.3549 14.4712 41.3227 13.3376L41.2905 12.1914C41.2583 11.0578 40.2407 10.1315 39.0148 10.121L24.8929 9.99619C23.6692 9.98561 22.701 10.895 22.7332 12.0286Z" fill="#E41517"/>
<path d="M33.4353 13.4579L32.0033 13.5657C31.9754 13.2591 31.3786 6.03476 35.2923 4.55859L35.8376 5.77674C33.3923 6.6967 33.2721 11.6264 33.4353 13.4579Z" fill="#E41517"/>
<path d="M38.5697 6.96891C40.6221 6.38521 41.7749 4.3888 41.1416 2.5087C40.5083 0.628605 38.3314 -0.422473 36.2769 0.161224C34.2245 0.744921 33.0716 2.74134 33.705 4.62143C34.3383 6.50153 36.5152 7.55261 38.5697 6.96891Z" fill="#FFC200"/>
<path d="M60.9135 27.7791C60.8855 27.2229 60.3767 26.7767 59.7756 26.783C59.269 26.7872 58.8632 27.115 58.7645 27.5507L57.1028 27.5676C57.0513 27.2271 56.9461 26.893 56.7851 26.5779C56.5768 26.1676 56.2827 25.7996 55.922 25.4908C55.5614 25.1821 55.1384 24.9431 54.6812 24.7845C54.2239 24.6259 53.7409 24.5519 53.2578 24.5688L53.5949 31.258C54.0779 31.2644 54.5545 31.1819 54.9946 31.0127C55.4347 30.8435 55.8319 30.5961 56.1625 30.281C56.491 29.9659 56.7486 29.5894 56.9139 29.177C57.0169 28.919 57.0813 28.6504 57.1114 28.3776L58.9469 28.3586C59.1552 28.6272 59.4965 28.8006 59.8744 28.7963C60.4755 28.79 60.9392 28.3353 60.9113 27.7791H60.9135Z" fill="#E41517"/>
<path d="M60.5277 42.7391L49.4377 45.7544C48.9826 45.8777 48.5735 46.086 48.2425 46.3578C47.9115 46.6315 47.6702 46.9612 47.5346 47.3256C47.399 47.688 47.376 48.0736 47.4656 48.4496C47.5553 48.8255 47.7552 49.1822 48.0517 49.4887L50.7317 52.2764C51.0259 52.5849 51.4075 52.8374 51.8442 53.011C52.2809 53.1864 52.7635 53.2789 53.2485 53.2828C53.7358 53.2866 54.2116 53.1999 54.6437 53.0322C55.0735 52.8644 55.4458 52.6177 55.7285 52.3131L62.5871 44.8887C62.8055 44.6497 62.9204 44.3624 62.9135 44.0655C62.9066 43.7686 62.7779 43.4794 62.548 43.2385C62.3182 42.9975 61.9964 42.8201 61.6332 42.7314C61.2701 42.6408 60.8817 42.6447 60.5254 42.7411L60.5277 42.7391Z" fill="#E41517"/>
</svg>
